<svg xmlns="http://www.w3.org/2000/svg" width="768" height="144" viewBox="0 0 768 144" role="img" aria-label="a11-boss lucifer-feather-halo boss laser" data-owner="a11-boss" data-motif="lucifer-feather-halo">
<defs>
 <linearGradient id="beam" x1="0" x2="1"><stop stop-color="#f5d087" stop-opacity="0"/><stop offset=".16" stop-color="#f5d087" stop-opacity=".8"/><stop offset=".47" stop-color="#fff"/><stop offset=".72" stop-color="#f5d087"/><stop offset="1" stop-color="#f5d087" stop-opacity="0"/></linearGradient>
 <linearGradient id="edge" x1="0" x2="1"><stop stop-color="#f5d087" stop-opacity="0"/><stop offset=".24" stop-color="#f5d087"/><stop offset=".78" stop-color="#f5d087"/><stop offset="1" stop-color="#f5d087" stop-opacity="0"/></linearGradient>
 <filter id="glow" x="-.08" y="-.6" width="1.16" height="2.2"><feGaussianBlur stdDeviation="7"/></filter>
</defs>
<g fill="none" stroke-linecap="round" stroke-linejoin="round">
 <path d="M8 72H760" stroke="#f5d087" stroke-width="34" opacity=".42" filter="url(#glow)"/>
 <path d="M0 72H768" stroke="url(#edge)" stroke-width="18" opacity=".7"/>
 <path d="M0 72H768" stroke="url(#beam)" stroke-width="7"/>
 <path d="M0 72H768" stroke="#fff" stroke-width="2" opacity=".95"/>
</g>
<g opacity=".96" transform="translate(0 39.6) scale(1 .45)"><path d="M325 91C342 44 359 38 384 72 359 36 348 25 335 20M340 98C356 53 372 47 384 72 375 42 370 30 361 20M443 91C426 44 409 38 384 72 409 36 420 25 433 20M428 98C412 53 396 47 384 72 393 42 398 30 407 20" fill="none" stroke="#f5d087" stroke-width="5" stroke-linecap="round"/><path d="M363 72a21 21 0 1 0 42 0 21 21 0 1 0-42 0M376 17l8-11 8 11m-8 98 8 12 8-12" fill="none" stroke="#fff5dc" stroke-width="3"/></g>
<g fill="#f5d087" opacity=".86"><circle cx="226" cy="72" r="3"/><circle cx="542" cy="72" r="3"/><circle cx="605" cy="62" r="2"/><circle cx="162" cy="83" r="2"/></g>
</svg>