<svg xmlns="http://www.w3.org/2000/svg" width="768" height="144" viewBox="0 0 768 144" role="img" aria-label="b04-boss beelzebub-jaws boss laser" data-owner="b04-boss" data-motif="beelzebub-jaws">
<defs>
 <linearGradient id="beam" x1="0" x2="1"><stop stop-color="#d99555" stop-opacity="0"/><stop offset=".16" stop-color="#d99555" stop-opacity=".8"/><stop offset=".47" stop-color="#fff"/><stop offset=".72" stop-color="#d99555"/><stop offset="1" stop-color="#d99555" stop-opacity="0"/></linearGradient>
 <linearGradient id="edge" x1="0" x2="1"><stop stop-color="#d99555" stop-opacity="0"/><stop offset=".24" stop-color="#d99555"/><stop offset=".78" stop-color="#d99555"/><stop offset="1" stop-color="#d99555" stop-opacity="0"/></linearGradient>
 <filter id="glow" x="-.08" y="-.6" width="1.16" height="2.2"><feGaussianBlur stdDeviation="7"/></filter>
</defs>
<g fill="none" stroke-linecap="round" stroke-linejoin="round">
 <path d="M8 72H760" stroke="#d99555" stroke-width="34" opacity=".42" filter="url(#glow)"/>
 <path d="M0 72H768" stroke="url(#edge)" stroke-width="18" opacity=".7"/>
 <path d="M0 72H768" stroke="url(#beam)" stroke-width="7"/>
 <path d="M0 72H768" stroke="#fff" stroke-width="2" opacity=".95"/>
</g>
<g opacity=".96" transform="translate(0 39.6) scale(1 .45)"><path d="M316 38l29 13-20 21 20 21-29 13m136-68-29 13 20 21-20 21 29 13" fill="none" stroke="#d99555" stroke-width="7" stroke-linejoin="round"/><path d="M326 45l20 12m-20 42 20-12m116-42-20 12m20 42-20-12" stroke="#fff0dc" stroke-width="3"/><path d="M384 51l12 21-12 21-12-21z" fill="#d99555"/></g>
<g fill="#d99555" opacity=".86"><circle cx="226" cy="72" r="3"/><circle cx="542" cy="72" r="3"/><circle cx="605" cy="62" r="2"/><circle cx="162" cy="83" r="2"/></g>
</svg>