<svg xmlns="http://www.w3.org/2000/svg" width="768" height="144" viewBox="0 0 768 144" role="img" aria-label="c102-boss network-choir-nodes boss laser" data-owner="c102-boss" data-motif="network-choir-nodes">
<defs>
 <linearGradient id="beam" x1="0" x2="1"><stop stop-color="#c5a8d5" stop-opacity="0"/><stop offset=".16" stop-color="#c5a8d5" stop-opacity=".8"/><stop offset=".47" stop-color="#fff"/><stop offset=".72" stop-color="#c5a8d5"/><stop offset="1" stop-color="#c5a8d5" stop-opacity="0"/></linearGradient>
 <linearGradient id="edge" x1="0" x2="1"><stop stop-color="#c5a8d5" stop-opacity="0"/><stop offset=".24" stop-color="#c5a8d5"/><stop offset=".78" stop-color="#c5a8d5"/><stop offset="1" stop-color="#c5a8d5" stop-opacity="0"/></linearGradient>
 <filter id="glow" x="-.08" y="-.6" width="1.16" height="2.2"><feGaussianBlur stdDeviation="7"/></filter>
</defs>
<g fill="none" stroke-linecap="round" stroke-linejoin="round">
 <path d="M8 72H760" stroke="#c5a8d5" stroke-width="34" opacity=".42" filter="url(#glow)"/>
 <path d="M0 72H768" stroke="url(#edge)" stroke-width="18" opacity=".7"/>
 <path d="M0 72H768" stroke="url(#beam)" stroke-width="7"/>
 <path d="M0 72H768" stroke="#fff" stroke-width="2" opacity=".95"/>
</g>
<g opacity=".96" transform="translate(0 39.6) scale(1 .45)"><path d="M317 45l34 16 33-27 33 27 34-16M317 99l34-16 33 27 33-27 34 16" fill="none" stroke="#c5a8d5" stroke-width="3"/><g fill="#f6eaff" stroke="#c5a8d5" stroke-width="3"><circle cx="317" cy="45" r="7"/><circle cx="351" cy="61" r="7"/><circle cx="384" cy="34" r="7"/><circle cx="417" cy="61" r="7"/><circle cx="451" cy="45" r="7"/><circle cx="317" cy="99" r="7"/><circle cx="351" cy="83" r="7"/><circle cx="384" cy="110" r="7"/><circle cx="417" cy="83" r="7"/><circle cx="451" cy="99" r="7"/></g><path d="M367 72h34" stroke="#fff" stroke-width="5"/></g>
<g fill="#c5a8d5" opacity=".86"><circle cx="226" cy="72" r="3"/><circle cx="542" cy="72" r="3"/><circle cx="605" cy="62" r="2"/><circle cx="162" cy="83" r="2"/></g>
</svg>